<?xml version="1.0" encoding="utf-8"?>
<!-- Generator: Adobe Illustrator 26.0.2, SVG Export Plug-In . SVG Version: 6.00 Build 0)  -->
<svg version="1.1" id="Layer_1" xmlns="http://www.w3.org/2000/svg" xmlns:xlink="http://www.w3.org/1999/xlink" x="0px" y="0px"
	 viewBox="0 0 1468 413" style="enable-background:new 0 0 1468 413;" xml:space="preserve">
<style type="text/css">
	.st0{fill:url(#SVGID_1_);}
	.st1{fill:url(#SVGID_00000073682950495298169770000011433120778063483316_);}
	.st2{fill:url(#SVGID_00000102535268728862787510000010617023132679796368_);}
	.st3{fill:url(#SVGID_00000049181855759992780080000004957260094924059274_);}
	.st4{fill:url(#SVGID_00000034065425233067777320000005113456429540850593_);}
	.st5{fill:url(#SVGID_00000073683332793250246050000007380856302597807499_);}
	.st6{fill:url(#SVGID_00000083060340483677283990000016879909062543818917_);}
	.st7{fill:url(#SVGID_00000170982919442837219370000015070551784363808386_);}
	.st8{fill:url(#SVGID_00000093159125480728962890000013503976754160920485_);}
	.st9{fill:url(#SVGID_00000094582652029749270390000000106108038074546314_);}
	.st10{fill:url(#SVGID_00000102519489913141752600000004596427345841835182_);}
	.st11{fill:url(#SVGID_00000170243497678950147470000018185843259383185083_);}
	.st12{fill:#191617;}
</style>
<g>
	<g id="Layer_2_00000124884150420876924840000009546993044000605833_">
		<g id="Layer_1-2">
			
				<linearGradient id="SVGID_1_" gradientUnits="userSpaceOnUse" x1="368.9403" y1="-117.9811" x2="843.9058" y2="406.3817" gradientTransform="matrix(1 0 0 -1 0 414)">
				<stop  offset="0" style="stop-color:#FFFF00"/>
				<stop  offset="0.18" style="stop-color:#FDFE01"/>
				<stop  offset="0.24" style="stop-color:#F6FC06"/>
				<stop  offset="0.29" style="stop-color:#EAF90E"/>
				<stop  offset="0.33" style="stop-color:#DAF419"/>
				<stop  offset="0.36" style="stop-color:#C4ED28"/>
				<stop  offset="0.39" style="stop-color:#A8E53B"/>
				<stop  offset="0.41" style="stop-color:#88DC51"/>
				<stop  offset="0.44" style="stop-color:#62D06A"/>
				<stop  offset="0.46" style="stop-color:#39C486"/>
				<stop  offset="0.47" style="stop-color:#1ABB9B"/>
				<stop  offset="1" style="stop-color:#AFF022"/>
			</linearGradient>
			<path class="st0" d="M897.7,78.8c-0.2-0.3-0.4-0.7-0.6-1c-0.1-0.2-0.2-0.3-0.3-0.5c-14.3-23.6-37.6-40.4-64.6-46.3
				c0,0,0-0.1,0-0.1c-16.9-3.6-34.4-2.7-50.9,2.6c-3.4,1.1-12.5,4.4-16.4,6.5c-11.6,5.8-22.6,12.8-32.9,20.8l-0.7-0.6
				c-11.5-8.7-24.1-16.8-37.4-22.7l-0.1-0.1l-1.6-0.7l-1.7-0.7c0,0-0.1-0.1-0.2-0.1c-0.7-0.3-1.4-0.6-2.1-0.8
				c-0.7-0.2-1.5-0.6-2.2-0.8c-13-4.6-26.8-6.4-40.5-5.3c-5.2,0.4-10.4,1.3-15.6,2.5l-1.8,0.4c-17.3,4.7-33,13.8-45.7,26.5
				c-20.9,20.9-30.2,46.8-30.1,72.1c0,6.4,0.7,12.7,1.9,18.9c8.7,45,46.7,83.8,100.6,83.8c4.9,0,9.8-0.5,14.6-1.3
				c21.8-3.8,43.2-15.9,62.9-31l2.4,1.8c9.5,7.2,19.6,13.5,30.2,18.9c21,10.3,42.5,13.5,62.8,10.2c20.1-3.3,38.7-13,54.3-28.6
				c14.7-14.6,24.7-33.3,28.4-53.7C914.7,125.3,910.2,100.1,897.7,78.8z M890.6,144.1c-5.5,32.3-29.9,61-65.4,67.5
				c-5.1,0.9-10.4,1.4-15.6,1.4c-21.1,0-43.4-12.8-61-25.6c4.1-4.1,22.9-21.2,22.9-21.2c13.5,5.3,32.4-0.1,46.7-13.6
				c8.7-8.2,14.7-18.4,16.9-28.6c2.2-10.6,0.1-20.1-6-26.6c-6.1-6.5-15.4-9.2-26.1-7.6c-10.3,1.5-20.8,6.9-29.5,15.2
				c-14.7,13.8-21,32.3-16.2,46.2c-2.5,2.6-27.3,24.9-38.5,34.7c-20.5,15.5-42.7,27-63.7,27c-21.8,0-42.7-8.6-58.1-24.1
				c-13.2-13.2-20.6-28.9-23.1-44.8c-0.5-3.1-0.8-6.3-0.9-9.5c-0.8-23,7.9-45.4,24-61.8l0.1-0.1l1.2-1.2
				c11.5-11.3,26.1-18.8,41.9-21.5c1-0.2,2-0.3,3-0.5c3.9-0.5,7.9-0.8,11.9-0.8c21.5,0,43.5,12.3,61.1,25.3
				c-5.1,4.5-24.6,23-24.6,23c-10.6-3.3-22.8,2.3-30.7,11.9c-7.2,8.8-28.9,34.4-40.4,49c-0.5,0.6-0.4,1.4,0.1,2l0.1,0
				c0.6,0.6,1.5,0.6,2.1,0c10.4-10.4,27.3-28.2,41-42.2c1-1,2.6-1,3.6,0c0,0,0,0,0,0l0,0c1,0.9,1,2.5,0.2,3.5
				c-13,14.9-29.5,33.3-39.1,44.6c-0.5,0.6-0.4,1.5,0.1,2l0.1,0.1c0.6,0.5,1.5,0.5,2,0c10.7-10.1,28.2-27.4,42.5-41
				c1-1,2.6-0.9,3.6,0.1c0.5,0.5,0.8,1.1,0.8,1.8c0,0.7-0.2,1.3-0.7,1.8c-13.4,14.5-30.4,32.2-40.3,43.1c-0.5,0.6-0.5,1.5,0.1,2
				l0,0.1c0.6,0.5,1.4,0.6,2,0.1c11.1-9.7,29.2-26.6,43.9-39.7c1-1,2.7-0.9,3.7,0.1c1,1,0.9,2.7-0.1,3.7
				c-13.8,14-31.4,31.1-41.6,41.7c-0.6,0.6-0.5,1.5,0,2.1c0.5,0.5,1.4,0.5,2,0.1c12.6-10.2,33.3-28,43.1-36.4c0,0,0.1,0,0.1-0.1
				c0,0,0,0,0,0c0,0,0,0,0.1,0l0,0c0,0,0.1-0.1,0.1-0.1l0.1-0.1l0,0c0.7-0.6,2.2-1.9,4.9-4.3c8-6.9,12.7-15.5,12.8-23.7
				c0-0.1,0-0.1,0-0.2c0-0.6,0-1.1-0.1-1.7c0-0.1,0-0.1,0-0.2c-0.1-1.8-0.5-3.6-1.2-5.2l13.2-13.3c14.5-13.9,30.8-27.3,47.5-36.7
				c10.6-6,21.5-10.3,32.1-12.1c0.4-0.1,0.8-0.1,1.2-0.2c0.2,0,0.4-0.1,0.5-0.1c2.9-0.4,5.7-0.6,8.6-0.6c21.8,0,42.7,8.6,58.1,24.1
				C888.2,93.4,894.7,119.8,890.6,144.1L890.6,144.1z M825.7,104.5c1.8,3.3,2.9,6.9,3,10.6c0.2,3.8-0.2,7.6-1.2,11.2
				c-2,7.3-5.7,14-10.8,19.6c-5,5.7-11.1,10.2-18,13.2c-3.4,1.5-7,2.6-10.7,3.2c-3.7,0.6-7.4,0.5-11-0.2c7-1,13.7-3.4,19.7-7.1
				c5.9-3.5,11.2-7.9,15.8-13c4.6-5.1,8.3-10.9,10.8-17.3C825.8,118.6,827.1,111.6,825.7,104.5z"/>
			
				<linearGradient id="SVGID_00000106849377129576456220000013068312854181977990_" gradientUnits="userSpaceOnUse" x1="519.7763" y1="173.9115" x2="759.7935" y2="309.4314" gradientTransform="matrix(1 0 0 -1 0 414)">
				<stop  offset="0" style="stop-color:#0478D5"/>
				<stop  offset="0.47" style="stop-color:#1ABB9B"/>
				<stop  offset="1" style="stop-color:#AFF022"/>
			</linearGradient>
			<path style="fill:url(#SVGID_00000106849377129576456220000013068312854181977990_);" d="M668.4,118.7L668.4,118.7
				c0.2,0.8,0,1.6-0.6,2.2c-12.9,14.9-29.5,33.3-39.1,44.6c-0.5,0.6-0.5,1.5,0.1,2l0.1,0.1c0.1,0.1,0.1,0.1,0.2,0.2
				c0-0.3,0.1-0.7,0.4-0.9c9.6-11.2,26.1-29.6,39.1-44.6C669.5,121.2,669.4,119.7,668.4,118.7z M677.8,128L677.8,128
				c0,0.2,0,0.3,0,0.5c0,0.7-0.2,1.3-0.6,1.8c-13.4,14.4-30.4,32.2-40.3,43.1c-0.5,0.6-0.5,1.5,0.1,2l0,0.1c0.1,0.1,0.2,0.1,0.2,0.2
				c0-0.4,0.1-0.7,0.4-1c9.9-10.9,26.9-28.7,40.3-43.1c0.5-0.5,0.7-1.1,0.7-1.8C678.6,129.1,678.3,128.4,677.8,128L677.8,128z
				 M687.1,137.2L687.1,137.2c0.2,0.9-0.1,1.7-0.7,2.4c-13.8,14-31.4,31.1-41.6,41.7c-0.6,0.6-0.5,1.5,0,2.1c0,0,0,0,0,0
				c0.1,0.1,0.2,0.2,0.3,0.2c0-0.4,0.1-0.7,0.4-1c10.2-10.6,27.8-27.7,41.6-41.7C688.2,139.9,688.2,138.2,687.1,137.2
				C687.2,137.2,687.2,137.2,687.1,137.2L687.1,137.2z M691.8,96.7c-10.5-3.3-22.8,2.3-30.7,11.9c-7.3,8.8-28.9,34.4-40.4,49
				c-0.5,0.6-0.4,1.4,0.1,2l0,0c0.1,0.1,0.2,0.1,0.2,0.2c0-0.3,0.1-0.6,0.3-0.9c11.5-14.6,33.1-40.3,40.4-49
				c7.9-9.6,20.2-15.2,30.7-11.9l0.1-0.1l23.8-24.2C710.8,78.8,691.8,96.7,691.8,96.7L691.8,96.7z M829.9,116.1
				c-0.2-3.7-1.2-7.4-3-10.7c0,0,0,0.1,0,0.1c1.3,2.9,2.1,6,2.3,9.2c0.2,3.8-0.2,7.6-1.2,11.2c-2,7.3-5.7,14.1-10.8,19.7
				c-5,5.7-11.1,10.2-18,13.2c-3.4,1.5-7,2.6-10.7,3.2c-2,0.3-4,0.4-6,0.4c-1.4,0.3-2.8,0.6-4.3,0.8c3.6,0.7,7.4,0.7,11,0.2
				c3.7-0.6,7.3-1.7,10.7-3.2c6.9-3.1,13-7.6,18-13.2c5.1-5.6,8.9-12.4,10.9-19.7C829.8,123.6,830.2,119.8,829.9,116.1L829.9,116.1z
				 M829.4,97.2c-6.1-6.5-15.4-9.2-26.1-7.6c-10.3,1.5-20.8,6.9-29.5,15.2c-14.7,13.8-21,32.3-16.2,46.2
				c-2.5,2.6-27.3,24.9-38.5,34.7c-20.5,15.5-42.7,27-63.7,27c-21.8,0-42.7-8.6-58.1-24.1c-5.1-5.1-9.5-10.7-13.2-16.9
				c3.8,6.7,8.5,12.8,13.9,18.2c15.4,15.4,36.3,24.1,58.1,24.1c21.1,0,43.2-11.5,63.7-27c11.3-9.9,36.1-32.2,38.5-34.7
				c-4.8-13.9,1.5-32.4,16.2-46.2c8.7-8.2,19.2-13.6,29.5-15.2c10.7-1.6,20.1,1.1,26.1,7.6c1.1,1.2,2.1,2.5,3,3.9
				C832.2,100.5,830.9,98.8,829.4,97.2L829.4,97.2z M882.2,91.2c8.8,16,11.9,34.5,8.7,52.5c-5.5,32.3-29.9,61-65.4,67.5
				c-5.1,0.9-10.4,1.4-15.6,1.4c-20.7,0-42.4-12.2-59.8-24.7l-0.4,0.4c17.5,12.8,39.9,25.6,61,25.6c5.3,0,10.5-0.5,15.7-1.4
				c35.5-6.6,59.9-35.2,65.4-67.5C895,126.6,891.6,107.5,882.2,91.2L882.2,91.2z M898.1,78.4c-0.2-0.3-0.4-0.7-0.6-1
				c-0.1-0.2-0.2-0.3-0.3-0.5c-14.3-23.6-37.6-40.3-64.6-46.3c0,0,0,0,0-0.1c-16.9-3.6-34.4-2.7-50.9,2.6
				c-3.4,1.1-12.5,4.4-16.4,6.5c-11.6,5.8-22.6,12.8-32.9,20.8l18-10.7c2.4-1.5,4.7-2.9,7.1-4.3c2.8-1.6,5.7-3.1,8.5-4.5
				c3.8-2.1,13-5.4,16.4-6.5c16.4-5.3,34-6.2,50.8-2.6c0,0,0,0,0,0.1c27,5.9,50.3,22.6,64.6,46.3c0.1,0.2,0.2,0.3,0.3,0.5
				c0.2,0.3,0.4,0.6,0.6,0.9C898.6,79.3,898.3,78.8,898.1,78.4L898.1,78.4z M731.8,59.9c-11.5-8.7-24.1-16.8-37.4-22.7l-0.1,0
				c-0.5-0.2-1.1-0.5-1.6-0.7l-1.7-0.7c-0.1,0-0.1,0-0.2-0.1c-0.7-0.3-1.4-0.6-2.1-0.8c-0.7-0.2-1.5-0.6-2.2-0.8
				c-13-4.6-26.8-6.4-40.6-5.3c-5.2,0.4-10.4,1.3-15.6,2.5l-1.8,0.4c-17.3,4.7-33,13.8-45.7,26.5c-20.9,21-30.2,46.8-30,72.1
				c0,6.4,0.7,12.7,1.9,19c2.2,11.6,6.4,22.7,12.3,32.9c-5.5-9.9-9.4-20.5-11.5-31.6c-1.2-6.2-1.8-12.6-1.9-19
				c-0.2-25.3,9.1-51.2,30-72.1c12.7-12.7,28.4-21.8,45.7-26.5c0.6-0.2,1.2-0.3,1.8-0.4c5.1-1.2,10.3-2.1,15.6-2.5
				c13.7-1.1,27.6,0.7,40.6,5.3c0.7,0.3,1.5,0.5,2.2,0.8c0.7,0.3,1.4,0.5,2.1,0.8c0.1,0,0.1,0,0.2,0.1l1.7,0.7
				c0.5,0.2,1.1,0.5,1.6,0.7c0,0,0.1,0,0.1,0c13.1,5.8,25.6,13.8,36.9,22.4l0.5-0.3L731.8,59.9z"/>
			
				<linearGradient id="SVGID_00000165935275550416356650000000083372656571241869_" gradientUnits="userSpaceOnUse" x1="743.0425" y1="344.3657" x2="670.0572" y2="369.3812" gradientTransform="matrix(1 0 0 -1 0 414)">
				<stop  offset="0" style="stop-color:#000000;stop-opacity:0.5"/>
				<stop  offset="1" style="stop-color:#39B44A;stop-opacity:0"/>
			</linearGradient>
			<path style="fill:url(#SVGID_00000165935275550416356650000000083372656571241869_);" d="M732.1,60.8l-16,13.2
				c-17.6-13-39.7-25.3-61.1-25.3c-5,0-10,0.4-14.9,1.3l5.5-21c13.7-1.1,27.6,0.7,40.6,5.3c0.7,0.2,1.5,0.5,2.2,0.8
				c0.7,0.3,1.4,0.5,2.1,0.8c0.1,0,0.1,0,0.2,0.1l1.7,0.7l1.6,0.7l0.1,0.1c13.3,5.8,25.9,14,37.4,22.7L732.1,60.8z"/>
			
				<linearGradient id="SVGID_00000041997217002148079560000009448451096102972073_" gradientUnits="userSpaceOnUse" x1="732.0168" y1="233.457" x2="786.4831" y2="202.1134" gradientTransform="matrix(1 0 0 -1 0 414)">
				<stop  offset="0" style="stop-color:#000000;stop-opacity:0.5"/>
				<stop  offset="1" style="stop-color:#39B44A;stop-opacity:0"/>
			</linearGradient>
			<path style="fill:url(#SVGID_00000041997217002148079560000009448451096102972073_);" d="M827.7,231.9
				c-20.2,3.3-41.8,0.1-62.8-10.2c-10.6-5.4-20.7-11.7-30.2-18.9l-2.4-1.8l16.2-13.5c17.5,12.8,39.9,25.6,61,25.6
				c5.2,0,10.5-0.5,15.6-1.4L827.7,231.9z"/>
			<g>
				
					<linearGradient id="SVGID_00000161596017149522443410000005482246502024787643_" gradientUnits="userSpaceOnUse" x1="865.0992" y1="379.1514" x2="866.3504" y2="317.0257" gradientTransform="matrix(1 0 0 -1 0 414)">
					<stop  offset="0" style="stop-color:#000000;stop-opacity:0.5"/>
					<stop  offset="1" style="stop-color:#39B44A;stop-opacity:0"/>
				</linearGradient>
				<path style="fill:url(#SVGID_00000161596017149522443410000005482246502024787643_);" d="M910.4,149.6l-19.8-5.5
					c4.1-24.3-2.4-50.7-22.9-71.3c-12.7-12.8-29.3-21-47.2-23.3c11.3,1.2,51.3,4.9,76.3,27.8c0.1,0.2,0.2,0.4,0.3,0.5
					c0.2,0.3,0.4,0.6,0.6,1C910.2,100.1,914.7,125.2,910.4,149.6z"/>
				
					<linearGradient id="SVGID_00000144308985651653758260000013753572915037733301_" gradientUnits="userSpaceOnUse" x1="597.14" y1="376.8096" x2="598.343" y2="316.9296" gradientTransform="matrix(1 0 0 -1 0 414)">
					<stop  offset="0" style="stop-color:#000000;stop-opacity:0.5"/>
					<stop  offset="1" style="stop-color:#39B44A;stop-opacity:0"/>
				</linearGradient>
				<path style="fill:url(#SVGID_00000144308985651653758260000013753572915037733301_);" d="M644,49.5c-17.3,2.3-33.4,10-45.9,22.1
					l-1.2,1.2l-0.1,0.1c-17.9,17.9-25.2,40.3-24,61.8c0.1,3.2,0.4,6.3,0.9,9.5l-19.4,5.4c-1.2-6.2-1.8-12.6-1.9-19
					c0.2-18.2,5.1-36.1,14.3-51.8c0.2-0.3,0.4-0.7,0.6-1c0.1-0.2,0.2-0.3,0.3-0.5C592,55,630.5,50.8,643,49.6L644,49.5z"/>
			</g>
			
				<linearGradient id="SVGID_00000017486415027320553750000011133422603247703954_" gradientUnits="userSpaceOnUse" x1="865.1001" y1="-5000.5547" x2="866.3513" y2="-5062.6802" gradientTransform="matrix(1 0 0 1 0 5228.0601)">
				<stop  offset="0" style="stop-color:#000000;stop-opacity:0.5"/>
				<stop  offset="1" style="stop-color:#39B44A;stop-opacity:0"/>
			</linearGradient>
			<path style="fill:url(#SVGID_00000017486415027320553750000011133422603247703954_);" d="M910.4,112.8l-19.8,5.5
				c4.1,24.3-2.4,50.7-22.9,71.3c-12.7,12.8-29.3,21-47.2,23.4c11.3-1.2,51.3-4.9,76.3-27.8c0.1-0.2,0.2-0.4,0.3-0.5
				c0.2-0.3,0.4-0.6,0.6-1C910.2,162.3,914.7,137.1,910.4,112.8z"/>
			
				<linearGradient id="SVGID_00000091014461975396247840000016151944316747942022_" gradientUnits="userSpaceOnUse" x1="597.1519" y1="-5002.8882" x2="598.355" y2="-5062.7681" gradientTransform="matrix(1 0 0 1 0 5228.0601)">
				<stop  offset="0" style="stop-color:#000000;stop-opacity:0.5"/>
				<stop  offset="1" style="stop-color:#39B44A;stop-opacity:0"/>
			</linearGradient>
			<path style="fill:url(#SVGID_00000091014461975396247840000016151944316747942022_);" d="M644,212.9c-17.3-2.3-33.4-10-45.9-22.1
				l-1.2-1.1l-0.1-0.1c-17.9-17.9-25.2-40.3-24-61.8c0.1-3.2,0.4-6.3,0.9-9.5l-19.4-5.4c-1.2,6.2-1.8,12.6-1.9,19
				c0.2,18.2,5.1,36.1,14.3,51.8c0.2,0.3,0.4,0.7,0.6,1c0.1,0.2,0.2,0.3,0.3,0.5c24.4,22.2,62.9,26.4,75.4,27.7L644,212.9z"/>
			
				<linearGradient id="SVGID_00000044876882479247929170000002930368211938722972_" gradientUnits="userSpaceOnUse" x1="739.9638" y1="321.4133" x2="732.9781" y2="334.4785" gradientTransform="matrix(1 0 0 -1 0 414)">
				<stop  offset="0" style="stop-color:#000000;stop-opacity:0.5"/>
				<stop  offset="1" style="stop-color:#39B44A;stop-opacity:0"/>
			</linearGradient>
			<path style="fill:url(#SVGID_00000044876882479247929170000002930368211938722972_);" d="M767.2,61.6
				c-16.7,9.4-33,22.8-47.4,36.6l-12.4,12.5l-1,0.9c-2.5-7.1-7.6-14.4-7.6-14.4L767.2,61.6z"/>
			
				<linearGradient id="SVGID_00000031177317644583411880000015491997900868021418_" gradientUnits="userSpaceOnUse" x1="766.7637" y1="233.9043" x2="755.1503" y2="240.0319" gradientTransform="matrix(1 0 0 -1 0 414)">
				<stop  offset="0" style="stop-color:#000000;stop-opacity:0.5"/>
				<stop  offset="1" style="stop-color:#39B44A;stop-opacity:0"/>
			</linearGradient>
			<path style="fill:url(#SVGID_00000031177317644583411880000015491997900868021418_);" d="M771.5,166.2c0,0-18.8,17.2-22.9,21.2
				l11.4-27.9C765,162.9,771.5,166.2,771.5,166.2z"/>
			
				<linearGradient id="SVGID_00000034049327609685706740000018442778654823805853_" gradientUnits="userSpaceOnUse" x1="698.7786" y1="339.2286" x2="898.4133" y2="339.2286" gradientTransform="matrix(1 0 0 -1 0 414)">
				<stop  offset="0" style="stop-color:#000000;stop-opacity:0.5"/>
				<stop  offset="1" style="stop-color:#39B44A;stop-opacity:0"/>
			</linearGradient>
			<path style="fill:url(#SVGID_00000034049327609685706740000018442778654823805853_);" d="M898.4,79.9c-0.2-0.3-0.4-0.6-0.5-0.9
				c-0.2-0.3-0.2-0.3-0.3-0.5l-0.9-1.4c-25-22.6-64.6-26.5-76-27.6h-0.1c-3.6-0.5-7.2-0.7-10.9-0.7c-2.9,0-5.8,0.2-8.6,0.6
				c-0.2,0-0.4,0-0.5,0.1c-0.4,0.1-0.8,0.1-1.2,0.2c-10.7,1.8-21.5,6.1-32.1,12.1c-12.7,7.1-25.2,16.6-36.8,26.8
				c-0.8,0.7-1.5,1.4-2.3,2.1c-0.9,0.8-1.9,1.7-2.8,2.5c-1.9,1.7-3.7,3.4-5.5,5.1l-12.3,12.3l-8.6-8.1l0,0l0.8-0.7l0.5-0.4
				c0.2-0.2,0.4-0.4,0.6-0.6c0.6-0.5,1.2-1.1,1.8-1.6c0.2-0.2,0.5-0.4,0.7-0.7l0.3-0.3l1.2-1.1c0.8-0.7,1.6-1.5,2.4-2.2l1.2-1.1
				c0.1-0.1,0.2-0.2,0.3-0.3c0.6-0.6,1.2-1.1,1.8-1.7l3.3-3l0.6-0.5c1.3-1.2,2.4-2.2,3.4-3l0.1-0.1l1.2-1.1l16-12.8l0.5-0.4
				c10.6-8,21.9-15,33.8-20.8c4-2,13.3-5.4,16.8-6.5c16.9-5.3,35-6.2,52.3-2.6c0,0,0,0,0,0.1c23.3,5.1,42.4,17,56.3,32.7
				c0.7,1.1,1.5,2.2,2.2,3.4c0.1,0.2,0.2,0.3,0.3,0.5c0.2,0.3,0.4,0.6,0.6,1C897.9,79.1,898.2,79.5,898.4,79.9z"/>
			
				<linearGradient id="SVGID_00000003064688502158979090000015819931727489424823_" gradientUnits="userSpaceOnUse" x1="566.2422" y1="227.0364" x2="765.8689" y2="227.0364" gradientTransform="matrix(1 0 0 -1 0 414)">
				<stop  offset="0" style="stop-color:#000000;stop-opacity:0.5"/>
				<stop  offset="1" style="stop-color:#39B44A;stop-opacity:0"/>
			</linearGradient>
			<path style="fill:url(#SVGID_00000003064688502158979090000015819931727489424823_);" d="M566.2,181.8c0.2,0.3,0.4,0.6,0.5,0.9
				c0.2,0.3,0.2,0.3,0.3,0.5c0.3,0.5,0.6,1,0.9,1.4c25,22.6,64.6,26.5,76,27.6h0.1c3.6,0.5,7.2,0.7,10.9,0.7c2.9,0,5.8-0.2,8.6-0.6
				c0.2,0,0.4,0,0.5-0.1c0.4-0.1,0.8-0.1,1.2-0.2c10.7-1.8,21.5-6.1,32.1-12.1c12.7-7.1,25.2-16.6,36.8-26.8l2.3-2.1
				c0.9-0.8,1.9-1.7,2.8-2.5c1.9-1.7,3.7-3.4,5.5-5.1l12.3-12.3l8.6,8.1l0,0l-0.8,0.7l-0.5,0.4c-0.2,0.2-0.4,0.4-0.6,0.6
				c-0.6,0.5-1.2,1.1-1.8,1.6c-0.2,0.2-0.5,0.4-0.7,0.7c-0.1,0.1-0.2,0.2-0.3,0.3l-1.2,1.1c-0.8,0.7-1.6,1.5-2.4,2.2l-1.2,1.2
				c-0.1,0.1-0.2,0.2-0.3,0.3l-1.8,1.7l-3.3,3l-0.6,0.5c-1.3,1.2-2.4,2.2-3.4,3l-0.1,0.1l-1.1,1l-16,12.8l-0.5,0.4
				c-10.6,8-21.9,15-33.8,20.8c-4,2-13.3,5.4-16.8,6.5c-16.9,5.3-34.9,6.2-52.3,2.6c0,0,0-0.1,0-0.1c-23.3-5.1-42.4-17-56.3-32.7
				c-0.7-1.1-1.5-2.2-2.2-3.4c-0.1-0.2-0.2-0.3-0.3-0.5c-0.2-0.3-0.4-0.6-0.6-1C566.7,182.7,566.5,182.2,566.2,181.8z"/>
			<path class="st12" d="M800.5,246.6c-25.5,0-43.2,16.9-43.2,41.2c0,24.3,17.7,41.2,43.2,41.2c25.4,0,43.1-16.9,43.1-41.2
				S825.8,246.6,800.5,246.6 M800.5,308c-11.9,0-19.8-8.1-19.8-20.2s8-20.2,19.8-20.2c11.9,0,19.8,8.1,19.8,20.2
				C820.3,299.9,812.3,308,800.5,308"/>
			<path class="st12" d="M487.9,246.6c-25.4,0-43.1,16.9-43.1,41.2c0,24.3,17.8,41.2,43.1,41.2S531,312,531,287.8
				S513.3,246.6,487.9,246.6 M487.9,308c-11.8,0-19.8-8.1-19.8-20.2s7.9-20.2,19.8-20.2s19.8,8.1,19.8,20.2
				C507.7,299.9,499.7,308,487.9,308"/>
			<path class="st12" d="M565.5,249.9h-30.1v48.7h20.2v-27.7h11.4c5.2,0,22.2,1.3,22.2,17.7c0,12.8-7.7,19-23.4,19h-30.4v21h32.3
				c26.4,0,44.8-16.1,44.8-39.2C612.5,264.4,595.3,249.9,565.5,249.9"/>
			<polygon class="st12" points="644.7,273.9 630.8,249.9 602.7,249.9 633.3,295.6 633.3,328.6 656,328.6 656,295.6 686.5,249.9 
				659.4,249.9 			"/>
			<polygon class="st12" points="929.8,249.9 919.4,289.7 906.6,249.9 886.7,249.9 873.9,288.5 864,249.9 839.5,249.9 863.4,328.6 
				882.1,328.6 896.2,285.4 910.3,328.6 929.5,328.6 953,249.9 			"/>
			<path class="st12" d="M721.9,249.9h-30.7v19.7h34c2.5-0.1,4.6,1.8,4.7,4.4c0.1,2.5-1.8,4.6-4.4,4.7c-0.1,0-0.3,0-0.4,0h-34v49.9
				h22.7v-28.2h8.7c25.3,0,30.6-13.8,30.6-25.3C753.3,263.5,747.8,249.9,721.9,249.9"/>
			<path class="st12" d="M1069.6,296.8c8.9-3.3,14.3-11.3,14.3-21.8c0-16.2-11.1-25.1-31.1-25.1h-31.8v19.7h34.9
				c2.5-0.1,4.6,1.8,4.7,4.4c0.1,2.5-1.8,4.6-4.4,4.7c-0.1,0-0.3,0-0.4,0h-34.9v49.9h22.7v-29h2.9l15.5,29h27.2L1069.6,296.8z"/>
			<path class="st12" d="M432.2,286.9c4.9-3.6,7.8-9.3,7.8-15.4c0-14.3-10.2-21.6-30.3-21.6h-30.8v19.7h33.5
				c2.5-0.1,4.6,1.8,4.7,4.4c0.1,2.5-1.8,4.6-4.4,4.7c-0.1,0-0.3,0-0.4,0h-33.5v19.8h37c2.5-0.1,4.7,1.9,4.8,4.4s-1.9,4.7-4.4,4.8
				c-0.1,0-0.3,0-0.4,0h-37v20.9h33.5c15,0,31-6.1,31-23.3C443.5,297.5,439.2,290.3,432.2,286.9"/>
			<path class="st12" d="M960.7,286.9c-4.9-3.6-7.8-9.3-7.7-15.4c0-14.3,10.2-21.6,30.3-21.6h30.8v19.7h-33.5
				c-2.5-0.1-4.6,1.8-4.7,4.4c-0.1,2.5,1.8,4.6,4.4,4.7c0.1,0,0.3,0,0.4,0h33.5v19.8h-37c-2.5-0.1-4.7,1.9-4.8,4.4s1.9,4.7,4.4,4.8
				c0.1,0,0.3,0,0.4,0h37v20.9h-33.5c-15,0-31-6.1-31-23.3C949.4,297.5,953.7,290.3,960.7,286.9"/>
			<path class="st12" d="M401.4,371.2L401.4,371.2c-0.1-7.4,5.7-13.4,12.9-13.5c0.2,0,0.4,0,0.6,0c4.9,0,7.8,1.6,10.2,4l-3.6,4.2
				c-2-1.8-4-2.9-6.6-2.9c-4.4,0-7.5,3.6-7.5,8.1v0.1c0,4.4,3.1,8.1,7.5,8.1c3,0,4.8-1.2,6.8-3l3.6,3.7c-2.6,3.1-6.6,4.8-10.6,4.6
				c-7.2,0.1-13.2-5.6-13.3-12.9C401.3,371.6,401.3,371.4,401.4,371.2z"/>
			<path class="st12" d="M483.1,358.2h5.7v20.7h12.9v5.2h-18.6V358.2z"/>
			<path class="st12" d="M556.7,371.2L556.7,371.2c0-7.4,5.8-13.5,13.8-13.5s13.7,6,13.7,13.3v0.1c0,7.4-5.8,13.4-13.8,13.4
				C562.4,384.6,556.7,378.6,556.7,371.2z M578.3,371.2L578.3,371.2c0-4.5-3.3-8.2-7.9-8.2c-4.6,0-7.8,3.6-7.8,8.1v0.1
				c0,4.4,3.3,8.1,7.8,8.1S578.3,375.7,578.3,371.2z"/>
			<path class="st12" d="M642.2,373v-14.8h5.7v14.7c0,4.2,2.1,6.4,5.6,6.4c3.5,0,5.6-2.1,5.6-6.2v-14.9h5.7v14.6
				c0,7.9-4.4,11.7-11.4,11.7C646.5,384.5,642.2,380.6,642.2,373z"/>
			<path class="st12" d="M723.9,358.2H734c8.1,0,13.8,5.6,13.8,12.9v0.1c0,7.3-5.6,13-13.8,13h-10.1V358.2z M734,379
				c4.7,0,7.8-3.1,7.8-7.7v-0.1c0-4.6-3.1-7.8-7.8-7.8h-4.4V379L734,379z"/>
			<path class="st12" d="M805,371.2L805,371.2c-0.1-7.4,5.7-13.4,12.9-13.5c0.2,0,0.4,0,0.6,0c4.9,0,7.8,1.6,10.2,4l-3.6,4.2
				c-2-1.8-4-2.9-6.6-2.9c-4.4,0-7.5,3.6-7.5,8.1v0.1c0,4.4,3.1,8.1,7.5,8.1c3,0,4.8-1.2,6.8-3l3.6,3.7c-2.6,3.1-6.6,4.8-10.6,4.6
				c-7.2,0.1-13.2-5.6-13.3-12.9C805,371.6,805,371.4,805,371.2z"/>
			<path class="st12" d="M895.7,358h5.3l11.1,26.1h-6l-2.4-5.8h-11l-2.4,5.8h-5.8L895.7,358z M901.7,373.3l-3.4-8.4l-3.4,8.4H901.7z
				"/>
			<path class="st12" d="M969.3,358.2h19.7v5.2h-14v5.5h12.4v5.2H975v10h-5.7V358.2z"/>
			<path class="st12" d="M1046.9,358.2h19.5v5.1h-13.9v5.3h12.2v5.1h-12.2v5.4h14.1v5.1h-19.7V358.2z"/>
		</g>
	</g>
</g>
</svg>
